<svg width="20.270142" height="20.000000" viewBox="0 0 20.2701 20" fill="none" xmlns="http://www.w3.org/2000/svg" xmlns:xlink="http://www.w3.org/1999/xlink">
	<desc>
			Created with Pixso.
	</desc>
	<defs>
		<clipPath id="clip13_908">
			<rect width="20.270088" height="20.000000" fill="white" fill-opacity="0"/>
		</clipPath>
		<linearGradient id="paint_linear_13_913_0" x1="10.027018" y1="0.799995" x2="10.027018" y2="19.152798" gradientUnits="userSpaceOnUse">
			<stop stop-color="#8359A2"/>
			<stop offset="1.000000" stop-color="#794E9B"/>
		</linearGradient>
	</defs>
	<rect width="20.270088" height="20.000000" fill="#FFFFFF" fill-opacity="0"/>
	<g clip-path="url(#clip13_908)">
		<rect x="-0.338135" y="-0.203125" width="20.796759" height="20.796757" fill="url(#pattern_13_9110)" fill-opacity="1.000000"/>
		<path d="M1.18835 9.8042C1.18835 11.5464 1.67456 13.167 2.53882 14.5444C2.41724 15.5706 0.83728 19.1494 0.83728 19.1494C0.83728 19.1494 4.25391 18.042 5.75293 17.637C7.06274 18.3796 8.58875 18.8118 10.2094 18.8118C15.179 18.8118 19.2168 14.7739 19.2168 9.8042C19.2168 4.83472 15.179 0.796875 10.2094 0.796875C5.23975 0.796875 1.18835 4.83472 1.18835 9.8042Z" fill="url(#paint_linear_13_913_0)" fill-opacity="1.000000" fill-rule="nonzero"/>
		<path d="M5.26672 7.57593C5.26672 7.06274 5.42883 6.45508 5.79333 5.88794C5.98242 5.59082 6.22559 5.3208 6.50916 5.10474C6.65771 4.99658 6.77917 4.86157 6.91431 4.75366C7.07629 4.61865 7.25183 4.5376 7.4679 4.55103C7.63 4.56445 7.76501 4.63208 7.8866 4.73999C8.04858 4.87524 8.19714 5.03711 8.30518 5.21265C8.53479 5.56396 8.77783 5.91504 8.96692 6.29297C9.04797 6.46875 9.11548 6.64429 9.14246 6.84668C9.19653 7.21143 9.07495 7.50854 8.80493 7.76514C8.6698 7.88672 8.54834 7.99463 8.41321 8.11621C8.33228 8.18359 8.25122 8.23779 8.17017 8.29175C7.98108 8.42676 7.84607 8.60229 7.81909 8.84546C7.80554 8.9939 7.81909 9.15601 7.85962 9.30469C7.94055 9.58813 8.08911 9.85815 8.25122 10.1013C8.53479 10.52 8.85889 10.9116 9.19653 11.2761C9.46655 11.5598 9.75012 11.8435 10.0743 12.0596C10.2633 12.1946 10.4659 12.3025 10.6954 12.343C10.9656 12.397 11.2086 12.343 11.4113 12.1541C11.4518 12.127 11.4788 12.0864 11.5193 12.0459C11.6948 11.8435 11.9109 11.6677 12.1134 11.5059C12.451 11.2356 12.8157 11.2087 13.1938 11.3708C13.4504 11.4788 13.6799 11.6409 13.8826 11.8164C14.1392 12.0325 14.3956 12.262 14.6388 12.4917C14.7603 12.5996 14.8549 12.7212 14.9224 12.8562C15.1115 13.1938 15.0845 13.491 14.8008 13.761C14.5713 13.9905 14.3281 14.2065 14.0715 14.4092C13.6394 14.7468 13.1533 14.9495 12.6132 15.0305C11.9648 15.125 11.3438 15.0439 10.736 14.8145C10.1418 14.5984 9.60168 14.2742 9.0885 13.8826C8.44031 13.3828 7.85962 12.8022 7.31934 12.1809C6.96826 11.7759 6.63062 11.3438 6.33362 10.8845C5.98242 10.3445 5.6853 9.79077 5.48279 9.18311C5.36121 8.71045 5.26672 8.22412 5.26672 7.57593Z" fill="#FFFFFF" fill-opacity="1.000000" fill-rule="nonzero"/>
	</g>
</svg>
