<svg width="20.134033" height="20.000000" viewBox="0 0 20.134 20" fill="none" xmlns="http://www.w3.org/2000/svg" xmlns:xlink="http://www.w3.org/1999/xlink">
	<desc>
			Created with Pixso.
	</desc>
	<defs>
		<clipPath id="clip13_915">
			<rect width="20.134048" height="20.000000" fill="white" fill-opacity="0"/>
		</clipPath>
		<linearGradient id="paint_linear_13_920_0" x1="9.953162" y1="0.794112" x2="9.953162" y2="19.011604" gradientUnits="userSpaceOnUse">
			<stop stop-color="#11BC3C"/>
			<stop offset="1.000000" stop-color="#27B64A"/>
		</linearGradient>
	</defs>
	<rect width="20.134048" height="20.000000" fill="#FFFFFF" fill-opacity="0"/>
	<g clip-path="url(#clip13_915)">
		<rect x="-0.335571" y="-0.201660" width="20.643446" height="20.643446" fill="url(#pattern_13_9180)" fill-opacity="1.000000"/>
		<path d="M1.17969 9.73193C1.17969 11.4612 1.66223 13.0698 2.52014 14.437C2.39954 15.4558 0.831177 19.0081 0.831177 19.0081C0.831177 19.0081 4.22266 17.9089 5.71057 17.5068C7.01074 18.2441 8.52551 18.6731 10.1342 18.6731C15.0671 18.6731 19.0752 14.665 19.0752 9.73193C19.0752 4.79907 15.0671 0.791016 10.1342 0.791016C5.20117 0.791016 1.17969 4.79907 1.17969 9.73193Z" fill="url(#paint_linear_13_920_0)" fill-opacity="1.000000" fill-rule="nonzero"/>
		<path d="M5.22791 7.52002C5.22791 7.0105 5.38879 6.40747 5.75073 5.84448C5.93835 5.54956 6.17969 5.28149 6.46118 5.06689C6.60864 4.95972 6.72925 4.82568 6.86328 4.71851C7.02417 4.58423 7.19836 4.50391 7.41284 4.51733C7.57373 4.53076 7.70776 4.59766 7.82849 4.70508C7.98926 4.83911 8.13672 5 8.24402 5.17407C8.47192 5.52271 8.71313 5.87109 8.90088 6.24658C8.9812 6.4209 9.04834 6.59497 9.07507 6.79614C9.12866 7.15796 9.00806 7.45288 8.73999 7.70776C8.60596 7.82837 8.48523 7.93555 8.3512 8.05615C8.27075 8.12329 8.19043 8.17676 8.10999 8.23047C7.92224 8.3645 7.78821 8.53882 7.76147 8.78003C7.74805 8.92749 7.76147 9.08838 7.80164 9.23584C7.88208 9.51733 8.02954 9.7854 8.19043 10.0266C8.47192 10.4421 8.79358 10.8311 9.12866 11.1929C9.39685 11.4744 9.67834 11.7559 10 11.9705C10.1877 12.1045 10.3888 12.2117 10.6167 12.252C10.8848 12.3054 11.126 12.252 11.3271 12.0642C11.3673 12.0374 11.3942 11.9973 11.4343 11.957C11.6086 11.7559 11.8231 11.5815 12.0242 11.4209C12.3593 11.1526 12.7212 11.126 13.0966 11.2869C13.3512 11.394 13.5791 11.5549 13.7802 11.729C14.0349 11.9436 14.2896 12.1714 14.5309 12.3994C14.6515 12.5066 14.7454 12.6272 14.8124 12.7612C15 13.0964 14.9733 13.3914 14.6918 13.6594C14.4639 13.8872 14.2225 14.1018 13.9679 14.3027C13.5389 14.6379 13.0563 14.8391 12.5201 14.9194C11.8767 15.0132 11.2601 14.9329 10.6569 14.7051C10.067 14.4905 9.53088 14.1687 9.02148 13.78C8.37805 13.2842 7.80164 12.7078 7.26538 12.0911C6.91687 11.689 6.58179 11.26 6.28687 10.8042C5.93835 10.2681 5.64343 9.71851 5.44238 9.11523C5.32178 8.646 5.22791 8.16333 5.22791 7.52002Z" fill="#FFFFFF" fill-opacity="1.000000" fill-rule="nonzero"/>
	</g>
</svg>
